<?xml version="1.0" encoding="UTF-8"?>
<svg width="250px" height="48px" viewBox="0 0 250 48" version="1.1" xmlns="http://www.w3.org/2000/svg" xmlns:xlink="http://www.w3.org/1999/xlink">
    <!-- Generator: Sketch 52.5 (67469) - http://www.bohemiancoding.com/sketch -->
    <title>Artboard</title>
    <desc>Created with Sketch.</desc>
    <g id="Artboard" stroke="none" stroke-width="1" fill="none" fill-rule="evenodd">
        <g id="Group-10" transform="translate(0.000000, 4.000000)">
            <g id="logo" fill-rule="nonzero">
                <path d="M2.33139969,0 L21.23594,8.8817842e-16 C22.6273019,-6.03188243e-16 23.9189646,0.722121385 24.6476893,1.90738433 L35.771412,20 L24.6388535,38.1069871 C24.2526931,38.7350728 23.4304842,38.931192 22.8023985,38.5450316 C22.6161603,38.4305284 22.4608927,38.2720395 22.3502375,38.0834896 L1.18003352,2.01070768 C0.806850463,1.37482571 1.01981001,0.556816875 1.65569198,0.183633815 C1.86057716,0.0633918821 2.09383694,4.36395686e-17 2.33139969,0 Z" id="Path" fill="#5CB54B"></path>
                <path d="M38.1028116,0 L57.007352,8.8817842e-16 C58.3987139,-6.03188243e-16 59.6903765,0.722121385 60.4191013,1.90738433 L71.5428239,20 L60.4102654,38.1069871 C60.0241051,38.7350728 59.2018962,38.931192 58.5738105,38.5450316 C58.3875723,38.4305284 58.2323047,38.2720395 58.1216495,38.0834896 L36.9514455,2.01070768 C36.5782624,1.37482571 36.791222,0.556816875 37.4271039,0.183633815 C37.6319891,0.0633918821 37.8652489,4.36395686e-17 38.1028116,0 Z" id="Path" fill="#E93F33" transform="translate(53.657118, 20.000000) scale(-1, 1) translate(-53.657118, -20.000000) "></path>
            </g>
            <path d="M102.18693,39.4677312 L97.6475143,39.4677312 L97.6475143,4.57751164 L85.2842809,4.57751164 L85.2842809,0.558882236 L114.550164,0.558882236 L114.550164,4.57751164 L102.18693,4.57751164 L102.18693,39.4677312 Z M154.497026,39.4677312 L150.011015,39.4677312 L142.133793,13.4131737 C141.759956,12.2599188 141.341622,10.8050653 140.878778,9.04856953 C140.415933,7.29207372 140.175613,6.23641783 140.157811,5.88157019 C139.766174,8.2235646 139.143123,10.7873003 138.28864,13.5728543 L130.65174,39.4677312 L126.165729,39.4677312 L115.778476,0.558882236 L120.584917,0.558882236 L126.753183,24.5908184 C127.607665,27.9618709 128.230716,31.0135148 128.622354,33.7458417 C129.103,30.4989858 129.815059,27.323147 130.75855,24.2182302 L137.754591,0.558882236 L142.561032,0.558882236 L149.904205,24.4311377 C150.758688,27.1812069 151.479646,30.2860772 152.067103,33.7458417 C152.405336,31.2264234 153.046188,28.1570374 153.98968,24.5375915 L160.131243,0.558882236 L164.937683,0.558882236 L154.497026,39.4677312 Z M171.052544,39.4677312 L171.052544,0.558882236 L175.59196,0.558882236 L175.59196,39.4677312 L171.052544,39.4677312 Z M216.793837,39.4677312 L211.613562,39.4677312 L190.278306,6.81304059 L190.064687,6.81304059 C190.349514,10.6453951 190.491926,14.158334 190.491926,17.3519627 L190.491926,39.4677312 L186.299642,39.4677312 L186.299642,0.558882236 L191.426512,0.558882236 L212.708363,33.0805057 L212.921982,33.0805057 C212.886379,32.6014613 212.806272,31.0623328 212.68166,28.4630739 C212.557048,25.8638149 212.512544,24.0053283 212.548148,22.8875582 L212.548148,0.558882236 L216.793837,0.558882236 L216.793837,39.4677312 Z M249.557741,29.1151031 C249.557741,32.5393828 248.311639,35.2095713 245.819398,37.1257485 C243.327157,39.0419257 239.944881,40 235.672468,40 C231.04402,40 227.48373,39.4056391 224.991489,38.2168995 L224.991489,33.8522954 C226.593643,34.5265059 228.338186,35.0587694 230.225168,35.4491018 C232.112151,35.8394342 233.981303,36.0345975 235.832682,36.0345975 C238.858975,36.0345975 241.137561,35.4624142 242.668509,34.3180306 C244.199457,33.173647 244.96492,31.5812921 244.96492,29.5409182 C244.96492,28.1924971 244.693447,27.0880504 244.150495,26.2275449 C243.607543,25.3670394 242.699668,24.5730797 241.426845,23.845642 C240.154022,23.1182044 238.218114,22.293196 235.619063,21.3705921 C231.987512,20.0753983 229.39295,18.5407053 227.835299,16.7664671 C226.277649,14.9922289 225.498835,12.6768828 225.498835,9.82035928 C225.498835,6.82189674 226.629227,4.43558217 228.890046,2.66134398 C231.150865,0.887105788 234.141509,0 237.862069,0 C241.742844,0 245.312035,0.709684631 248.56975,2.12907518 L247.15452,6.06786427 C243.932409,4.71944325 240.799353,4.04524285 237.755259,4.04524285 C235.352026,4.04524285 233.473973,4.5597642 232.121042,5.58882236 C230.768111,6.61788051 230.091656,8.04612083 230.091656,9.87358616 C230.091656,11.2220072 230.340877,12.3264539 230.839325,13.1869594 C231.337773,14.0474649 232.178892,14.8369891 233.362706,15.5555556 C234.54652,16.274122 236.357818,17.0680817 238.796654,17.9374584 C242.89105,19.3923337 245.70813,20.9536399 247.247979,22.6214238 C248.787828,24.2892077 249.557741,26.4537458 249.557741,29.1151031 Z" id="TWINS" fill="#FFFFFF"></path>
        </g>
    </g>
</svg>